<svg xmlns="http://www.w3.org/2000/svg" width="178.88mm" height="39.27mm" viewBox="0 0 507.05 111.33">
  <defs>
    <style>
      .cls-1 {
        fill: #fff;
      }
    </style>
  </defs>
  <g id="Layer_2" data-name="Layer 2">
    <g id="Layer_1-2" data-name="Layer 1">
      <g>
        <path class="cls-1" d="M62.37,107.1C58.37,94.3,44,85,29.26,79.6,17.66,99,7.86,118,2.66,130c-1.5,3.5-3.2,2-2.5.2,6.3-14.7,12.3-27,26.8-51.4-1.5-.6-3.1-1-4.6-1.5-3-1.5-2.3-6.5,9.5-6.7l2.8-4.5C53.87,34.4,73.47,20.5,76.27,20.79s4.3,2.11,3.7,5.11-5.4,21.8-10.1,45.7c9.3.3,16.7.7,17.3.7,2.7.4,2.1,2.2-1.1,1.9-3.7-.3-9.8-.6-16.6-.7-3.6,18.7-4,21-4.9,31.9a14.92,14.92,0,0,0-.2,2.1c1.1,6.8,1,6.2.8,7.5-.1,1.5-2,3.1-2.7,3s-1.4.1-1.1-.9S62.07,111.1,62.37,107.1ZM28,77.2l2.2-3.7c-7,.5-7.2,1.9-6.4,2.1C24.86,76.1,26.36,76.6,28,77.2Zm34.91,25.1c.7-7.3,1-10.2,4.6-28.9-13.1-.2-28.11-.1-34.41,0l-2.9,4.7C40.46,82.3,56.57,89.8,62.87,102.3Zm5-30.8c4.9-25.5,10.2-43.8,10.4-45.6s.4-3.3-1.4-3.5-26.1,22.9-40,44.9l-2.1,3.3C42.46,70.6,56.27,71,67.87,71.5Z" transform="translate(0 -20.79)"/>
        <path class="cls-1" d="M89.16,73.5a35.13,35.13,0,0,1-1.7,6.2c-.1.2,0,.4.3.4A52.26,52.26,0,0,0,93,77.7c2.9-1.5,4.9-2.6,6.5-2.6,1.4,0,2.7,1.2,2.7,3.2-.3,2.8-.3,4.3.7,4.4,7.4,1.6,20.3-30.3,25.8-46.7.3-.9,1.5-.7,1,.4-3.9,11.1-8.6,26.2-14.4,36.3-4.4,7.6-9.5,12.7-13.6,11.9-2.1-.4-2.5-2.3-2.2-5.1,0-1.5,0-2.1-.4-2.3s-1.6.1-3.5,1.1c-1.6.8-7.1,3.6-8,3.6-.6,0-2.4-.7-2.4-1.5,0-.5,1.3-3.9,1.8-7.1.3-.8.9-.8,1.5-.9S89.26,72.6,89.16,73.5Z" transform="translate(0 -20.79)"/>
        <path class="cls-1" d="M118.46,99.8a358.61,358.61,0,0,1,4.7-43.2c.7-3.7,1.4-7,2.1-10-19.5,0-21.3.1-21.7-1.4-.2-.9,2.6-2.1,3.4-1.6,1,.6,1.7.9,4.6.9l14.2.1c3.2-12.8,6.2-18,7.6-18,.8,0,1.4,2.4,1.2,3.3-.3,1.2-.7-.5-1.8,1.9a109,109,0,0,0-4.2,12.8c3.5,0,4.8.3,14.7.3,9.2,0,11.6-.5,11.9.6s-4.7,1.1-12.2,1.1H128c-.9,3.6-1.8,7.4-2.4,11.1-.9,4.9-2.4,13.6-3.7,24.1-.8,5.7-1.8,19.9-1.2,24.7.5,3.8,1.3,4.2-.1,4.4S118.36,107.2,118.46,99.8Z" transform="translate(0 -20.79)"/>
        <path class="cls-1" d="M135.16,77.8c.1.9.5,2.3,1.8,2.2,2.4-.2,4.3-2.9,4.2-5.6,0-.4-.1-.8-.1-1.1-3-.1-3.6-1.7-2.6-3,.8-.8,2.3-.3,3.2,1.2,4.9-.7,17.7-6.9,21.1-6.5,2.5.2,2.3,2.1,2.2,3.5-.3,2.3-3.3,9.2-3,9.5s7.1-6,9.1-5.8c1.3.1.5,4.5.3,7.8-.1,1.7,0,3,.5,3.3s1.4.1,2.1-.6.9-.1.5.7-1.9,2.6-3.4,2.1-2-3-1.8-5.4.8-4.9.3-5c-1.3-.3-7,6.5-8.6,6.2-.5,0-1.4-2.3-1.3-3.2s3.4-8.6,3.5-10.2c.1-.9.2-1.4-.7-1.5-2.3-.2-15.8,6.2-20.2,6.9a3.59,3.59,0,0,1,.2,1.1c.1,3.6-2.4,7.3-5.8,7.3-2.3.1-3.8-1.6-3.6-4.3a6.9,6.9,0,0,1,2.8-5c.4-.3,2.5.5,1.8,1A5.78,5.78,0,0,0,135.16,77.8Z" transform="translate(0 -20.79)"/>
        <path class="cls-1" d="M213.86,73.6c-1.2.3-6,3-17.5,6.9-9.1,3.1-11.4,3.6-13,3.6a3.13,3.13,0,0,1-3.4-3.4,20.79,20.79,0,0,1,1-5.8,2.88,2.88,0,0,1,2.6-2.5c.5-.1,1.1.5.5,1.6a19,19,0,0,0-2,6.6c-.1,1.2.4,1.8.9,1.8,1.3,0,4.1-.3,12.6-3.3,9.8-3.5,17.3-6.7,17.9-6.7S214.36,73.4,213.86,73.6Zm-29-10.9c.2-.6,1-1.7,1.6-1.6a2,2,0,0,1,1.3,2.3c-.3.9-1.6,2-2.2,1.9S184.66,63.4,184.86,62.7Z" transform="translate(0 -20.79)"/>
        <path class="cls-1" d="M256.86,72.8c.5-.3,2.6-.2.9.9-6.6,4.3-27.8,13.9-34.4,13.9-4.9,0-6.3-2.9-6.3-5s.4-3.1.2-3.3-.9-.2-4.1,1.5c-2.9,1.7-6.1,3-7.1,3-1.4,0-2.4-.9-2.4-1.5,0-1.9,1.2-4.5,5-7.3,3.2-2.5,5.2-3,6.9-3,2.3,0,3.7,3.6,2.7,3.6s-1.3-2-2.4-2-3,.8-5.8,2.7c-2.6,1.7-4.6,4.6-4.6,5.4,0,.2.1.3.4.3.9,0,2.6-.7,5.4-2.1,3.8-1.8,6.3-3.2,7.5-3.2.4,0,1.3.2,1.3.9s-1,2.6-1,4.9c0,1.7,1.8,3,4.4,3C230.46,85.5,250.76,76.1,256.86,72.8Z" transform="translate(0 -20.79)"/>
        <path class="cls-1" d="M310.46,28.1c-12.5,0-25.9,8.1-34.1,18.9-7.6,9.9-8.5,21.3-2.4,27.7,2.5,2.6-2.2,2.3-3.7-.1-4.7-4.8-5.1-18.2,4.3-29.7,9.6-11.6,22.1-18.7,36.1-18.7,16.1,0,22.1,10,21.4,20.7-1,18-19.9,30.4-42.1,31.4-3.9,19.6-4.9,29.7-5.5,32.3-.4,2-2.9,4.3-2.7,2.5.9-7.2,3.3-22.9,5.7-34.8h-.2c-2.2,0-2.9-2.6-.1-2.5h.8a12.86,12.86,0,0,1,.4-1.9c3.1-15,5.7-25.1,9.6-34,1.1-2.5,2.4-2,1.5.5-3,8.4-5.6,18.5-8.6,33.8l-.4,1.6c18.1-.7,37.6-11.8,39.2-29.2C330.56,36.8,325.06,28.1,310.46,28.1Z" transform="translate(0 -20.79)"/>
        <path class="cls-1" d="M348.66,76.5c-.7.8-1.8,2.1-3.7,4.1-3.4,3.6-9.1,8-10.9,8-1.4,0-2.2-.8-2-3.4a23.67,23.67,0,0,1,2.3-7.1c1.2-2.7,3.1-5.4,4.1-5.6a1.06,1.06,0,0,1,1.2,1.1c0,.8-2.4,2.8-3.8,5.5a29.26,29.26,0,0,0-2,5.2c-.3,1.6.1,2.3.6,2.3,1.6,0,7.2-4.7,9.3-7,3.8-4.1,6.2-7.2,7.6-6.9,1.2.3.7,1-.7,4a70.44,70.44,0,0,0-3.8,10.2c-.9,3.6.1,4.7,1.3,4.7,7.3,0,26.5-14.3,35.6-19.2.5-.2,2.5-.1.9,1-9,5.8-28.6,20.2-36.7,20.2-3,0-4.1-2.2-3-6.9A47.51,47.51,0,0,1,348.66,76.5Z" transform="translate(0 -20.79)"/>
        <path class="cls-1" d="M384.16,67.5c.5,2,2.1,5.5,3.6,9.9,6.8-5.8,13.6-10.5,17.3-11.9a1.38,1.38,0,0,1,.9,0c.5.2.4.7-.2.9-3.7,1.5-10.8,7-17.4,13a43.6,43.6,0,0,1,2.3,13.3c0,10.6-8.9,16.9-14.7,16.9-8.2,0-8.7-11.9,4.6-25.5,1.8-1.8,3.6-3.5,5.5-5.2-1.3-3.8-2.8-7.3-3.5-10.2-1.5-5.4,2.1-9.7,5.1-10.1,2.3-.2,2.2,1.1,1.2,1.6C385.16,62.4,383.46,65.1,384.16,67.5Zm2.6,13.4-4.4,4.2c-12.1,12.3-11.7,22.9-7.4,22.9,6.4,0,13.9-7.4,13.9-16.7A35.63,35.63,0,0,0,386.76,80.9Z" transform="translate(0 -20.79)"/>
        <path class="cls-1" d="M400.86,93.6c-1.8,6.1-3.5,11.5-4.6,14.6-2.5,7.2-3.5,9.6-4.2,9.6a1.39,1.39,0,0,1-1.4-1.2c0-.5,1.5-8.3,6.3-18.8.8-1.9,1.7-3.7,2.6-5.4a231.7,231.7,0,0,0,5.7-26.2c.2-1.4,2.1-.8,1.9.7a173.62,173.62,0,0,1-4.4,20c5.3-8.2,10.6-13,14.2-13,1.3,0,3.3,1.8,3.3,5.4,0,.5-.1,1-.1,1.5a137.11,137.11,0,0,1,21.6-8.5c1.2-.3,2.4.7,1.1,1-6.2,1.7-15.5,5.6-23.2,9.6a19,19,0,0,1-4.3,7.4c-5.5,5.5-11.2,4.9-11.2,2.2,0-2.4,5.7-6.4,13.2-10.3a22.14,22.14,0,0,0,.6-3.4c.1-2.1-.4-3.4-1.2-3.4C414.56,75.4,408,80.4,400.86,93.6Zm15.6-9.1c-5.8,3.1-10,6-10,7.4,0,1,2.3,1.5,7-3.1A12.85,12.85,0,0,0,416.46,84.5Z" transform="translate(0 -20.79)"/>
        <path class="cls-1" d="M484.86,72.8c.5-.3,2.6-.2.9.9-6.6,4.3-27.8,13.9-34.4,13.9-4.9,0-6.3-2.9-6.3-5s.4-3.1.2-3.3-.9-.2-4.1,1.5c-2.9,1.7-6.1,3-7.1,3-1.4,0-2.4-.9-2.4-1.5,0-1.9,1.2-4.5,5-7.3,3.2-2.5,5.2-3,6.9-3,2.3,0,3.7,3.6,2.7,3.6s-1.3-2-2.4-2-3,.8-5.8,2.7c-2.6,1.7-4.6,4.6-4.6,5.4,0,.2.1.3.4.3.9,0,2.6-.7,5.4-2.1,3.8-1.8,6.3-3.2,7.5-3.2.4,0,1.3.2,1.3.9s-1,2.6-1,4.9c0,1.7,1.8,3,4.4,3C458.46,85.5,478.76,76.1,484.86,72.8Z" transform="translate(0 -20.79)"/>
        <path class="cls-1" d="M506.06,83.9c-2.3,1.1-4.9,1.7-6.2,1.4-2.1-.4-2.6-3-2.4-5.8.1-1.5,0-2.1-.3-2.3-.5-.3-1.6.1-3.5,1.1-1.6.8-7.1,3.6-8,3.6-.6,0-2.4-.7-2.4-1.5,0-.5,1.3-3.9,1.8-7.1.2-.8.9-.8,1.4-.9s.9.2.8,1.1a46.69,46.69,0,0,1-1.7,6.2c-.1.2,0,.4.3.4a52.26,52.26,0,0,0,5.2-2.4c2.9-1.5,4.9-2.6,6.4-2.6s2.7,1.2,2.7,3.2c-.2,2.8,0,4.7.8,5.1s2.4.2,4.8-.6C507.16,82.2,507.66,83.2,506.06,83.9Z" transform="translate(0 -20.79)"/>
      </g>
    </g>
  </g>
</svg>
